<svg version="1.1" xmlns="http://www.w3.org/2000/svg" xmlns:xlink="http://www.w3.org/1999/xlink" viewBox="0 0 172 172"><defs><linearGradient x1="50.16308" y1="23.92592" x2="121.83692" y2="148.07408" gradientUnits="userSpaceOnUse" id="color-1"><stop offset="0" stop-color="#ffda1c"></stop><stop offset="1" stop-color="#feb705"></stop></linearGradient></defs><g fill="none" fill-rule="nonzero" stroke="none" stroke-width="1" stroke-linecap="butt" stroke-linejoin="miter" stroke-miterlimit="10" stroke-dasharray="" stroke-dashoffset="0" font-family="none" font-weight="none" font-size="none" text-anchor="none" style="mix-blend-mode: normal"><path d="M0,172v-172h172v172z" fill="none"></path><g><path d="M157.66667,86c0,39.57433 -32.09233,71.66667 -71.66667,71.66667c-39.57433,0 -71.66667,-32.09233 -71.66667,-71.66667c0,-39.57433 32.09233,-71.66667 71.66667,-71.66667c39.57433,0 71.66667,32.09233 71.66667,71.66667z" fill="url(#color-1)"></path><path d="M96.75,35.83333h-3.58333c-3.95242,0 -7.16667,3.21425 -7.16667,7.16667c0,-3.95242 -3.21425,-7.16667 -7.16667,-7.16667h-3.58333c-3.95242,0 -7.16667,3.21425 -7.16667,7.16667v3.58333h-3.58333c-3.95242,0 -7.16667,3.21425 -7.16667,7.16667v64.5c0,3.95242 3.21425,7.16667 7.16667,7.16667h3.58333v3.58333c0,3.95242 3.21425,7.16667 7.16667,7.16667h3.58333c3.95242,0 7.16667,-3.21425 7.16667,-7.16667v-3.58333v3.58333c0,3.95242 3.21425,7.16667 7.16667,7.16667h3.58333c3.95242,0 7.16667,-3.21425 7.16667,-7.16667v-4.98442c3.999,-1.03558 7.36733,-2.65167 10.0405,-4.816c5.2245,-4.2355 7.87617,-10.43825 7.87617,-18.43267c0,-4.80525 -1.3115,-8.97267 -3.8915,-12.38758c-1.12875,-1.50858 -2.451,-2.80217 -3.956,-3.87358c1.10725,-1.0105 2.08908,-2.15358 2.94192,-3.42208c2.17867,-3.27517 3.27875,-7.06633 3.27875,-11.27675c0,-7.59308 -2.73408,-13.48767 -8.13058,-17.51175c-2.24317,-1.67342 -4.93067,-2.96342 -8.15925,-3.90583v-5.38933c0,-3.95242 -3.21425,-7.16667 -7.16667,-7.16667zM78.83333,64.5h11.46308c4.22117,0 6.01283,0.88508 6.70442,1.41183c0.92808,0.70592 1.40108,2.107 1.40108,4.16025c0,1.88842 0,5.04892 -7.57875,5.17792h-11.98983v-10.75zM78.83333,93.16667h14.33333c4.73717,0.06808 7.16667,2.95267 7.16667,8.56775c0,5.70108 -7.41033,5.76558 -7.72567,5.76558h-13.77433v-14.33333z" fill="#000000" opacity="0.05"></path><path d="M96.75,37.625h-3.58333c-2.96342,0 -5.375,2.41158 -5.375,5.375v5.375h-3.58333v-5.375c0,-2.96342 -2.41158,-5.375 -5.375,-5.375h-3.58333c-2.96342,0 -5.375,2.41158 -5.375,5.375v5.375h-5.375c-2.96342,0 -5.375,2.41158 -5.375,5.375v64.5c0,2.96342 2.41158,5.375 5.375,5.375h5.375v5.375c0,2.96342 2.41158,5.375 5.375,5.375h3.58333c2.96342,0 5.375,-2.41158 5.375,-5.375v-5.375h3.58333v5.375c0,2.96342 2.41158,5.375 5.375,5.375h3.58333c2.96342,0 5.375,-2.41158 5.375,-5.375v-6.39983c4.34658,-0.946 7.94067,-2.55492 10.70342,-4.7945c4.78733,-3.88075 7.21325,-9.61408 7.21325,-17.03875c0,-4.4075 -1.18608,-8.20942 -3.52958,-11.309c-1.51217,-2.021 -3.41133,-3.612 -5.66167,-4.76225c1.82392,-1.23625 3.36117,-2.77708 4.59025,-4.61175c1.978,-2.97058 2.97775,-6.4285 2.97775,-10.277c0,-6.99825 -2.494,-12.4055 -7.41033,-16.07842c-2.35425,-1.75942 -5.27108,-3.06375 -8.8795,-3.97392v-6.75458c-0.00358,-2.96342 -2.41517,-5.375 -5.37858,-5.375zM77.04167,62.70833h13.25475c3.61917,0 6.24217,0.59842 7.79017,1.77733c1.41542,1.07858 2.107,2.90608 2.107,5.58642c0,3.17125 -1.06067,6.82983 -9.33817,6.96958h-13.81375v-14.33333zM77.04167,91.375h16.125c5.76917,0.08242 8.95833,3.7625 8.95833,10.35942c0,7.47125 -9.13033,7.55725 -9.51733,7.55725h-15.566v-17.91667z" fill="#000000" opacity="0.07"></path><path d="M75.25,39.41667h3.58333c1.978,0 3.58333,1.60533 3.58333,3.58333v10.75c0,1.978 -1.60533,3.58333 -3.58333,3.58333h-3.58333c-1.978,0 -3.58333,-1.60533 -3.58333,-3.58333v-10.75c0,-1.978 1.60533,-3.58333 3.58333,-3.58333zM93.16667,39.41667h3.58333c1.978,0 3.58333,1.60533 3.58333,3.58333v10.75c0,1.978 -1.60533,3.58333 -3.58333,3.58333h-3.58333c-1.978,0 -3.58333,-1.60533 -3.58333,-3.58333v-10.75c0,-1.978 1.60533,-3.58333 3.58333,-3.58333zM75.25,114.66667h3.58333c1.978,0 3.58333,1.60533 3.58333,3.58333v10.75c0,1.978 -1.60533,3.58333 -3.58333,3.58333h-3.58333c-1.978,0 -3.58333,-1.60533 -3.58333,-3.58333v-10.75c0,-1.978 1.60533,-3.58333 3.58333,-3.58333zM93.16667,114.66667h3.58333c1.978,0 3.58333,1.60533 3.58333,3.58333v10.75c0,1.978 -1.60533,3.58333 -3.58333,3.58333h-3.58333c-1.978,0 -3.58333,-1.60533 -3.58333,-3.58333v-10.75c0,-1.978 1.60533,-3.58333 3.58333,-3.58333zM60.91667,118.25v-64.5c0,-1.978 1.60533,-3.58333 3.58333,-3.58333h25.79642c8.63583,0 15.17183,1.66625 19.63667,4.99875c4.46483,3.3325 6.69008,8.21658 6.69008,14.6415c0,3.51167 -0.89583,6.60767 -2.67317,9.28083c-1.79167,2.67317 -4.28208,4.63325 -7.47483,5.88025c3.64067,0.9245 6.50733,2.76992 8.60717,5.57208c2.10342,2.78067 3.16767,6.18125 3.16767,10.22683c0,6.88717 -2.18225,12.10808 -6.55033,15.64842c-4.36808,3.54033 -10.58158,5.34633 -18.65842,5.418h-28.54125c-1.978,0 -3.58333,-1.60533 -3.58333,-3.58333zM75.25,78.83333h15.63408c7.39242,-0.12542 11.10117,-2.95267 11.10117,-8.76125c0,-3.2465 -0.93883,-5.58642 -2.81292,-7.01258c-1.87408,-1.42617 -4.83033,-2.14283 -8.87592,-2.14283h-15.04642zM75.25,89.58333v21.5h17.35767c3.44358,0 11.309,-1.68058 11.309,-9.34892c0,-7.66833 -4.00258,-12.05433 -10.75,-12.15108z" fill="#ffffff"></path></g></g></svg>